<?xml version="1.0" encoding="UTF-8" standalone="no"?>
<!-- Created with Inkscape (http://www.inkscape.org/) -->

<svg
   width="114"
   height="26"
   viewBox="0 0 30.1625 6.8791666"
   version="1.1"
   id="svg1"
   inkscape:version="1.3.2 (091e20e, 2023-11-25, custom)"
   sodipodi:docname="rustdesk-banner.svg"
   xmlns:inkscape="http://www.inkscape.org/namespaces/inkscape"
   xmlns:sodipodi="http://sodipodi.sourceforge.net/DTD/sodipodi-0.dtd"
   xmlns:xlink="http://www.w3.org/1999/xlink"
   xmlns="http://www.w3.org/2000/svg"
   xmlns:svg="http://www.w3.org/2000/svg">
  <sodipodi:namedview
     id="namedview1"
     pagecolor="#ffffff"
     bordercolor="#000000"
     borderopacity="0.25"
     inkscape:showpageshadow="2"
     inkscape:pageopacity="0.0"
     inkscape:pagecheckerboard="0"
     inkscape:deskcolor="#d1d1d1"
     inkscape:document-units="px"
     inkscape:zoom="11.560442"
     inkscape:cx="53.28516"
     inkscape:cy="42.775181"
     inkscape:window-width="2560"
     inkscape:window-height="1361"
     inkscape:window-x="-9"
     inkscape:window-y="-9"
     inkscape:window-maximized="1"
     inkscape:current-layer="layer1" />
  <defs
     id="defs1">
    <linearGradient
       inkscape:collect="always"
       xlink:href="#linearGradient5513"
       id="linearGradient5515"
       x1="33.226265"
       y1="137.342"
       x2="106.93082"
       y2="60.85247"
       gradientUnits="userSpaceOnUse" />
    <linearGradient
       inkscape:collect="always"
       id="linearGradient5513">
      <stop
         style="stop-color:#575757;stop-opacity:1;"
         offset="0"
         id="stop5509" />
      <stop
         style="stop-color:#ececec;stop-opacity:1;"
         offset="1"
         id="stop5511" />
    </linearGradient>
    <linearGradient
       inkscape:collect="always"
       xlink:href="#linearGradient5544"
       id="linearGradient5546"
       x1="8.3501921"
       y1="94.5"
       x2="136.64981"
       y2="94.5"
       gradientUnits="userSpaceOnUse" />
    <linearGradient
       inkscape:collect="always"
       id="linearGradient5544">
      <stop
         style="stop-color:#1f1f1f;stop-opacity:1;"
         offset="0"
         id="stop5540" />
      <stop
         style="stop-color:#1f1f1f;stop-opacity:0;"
         offset="1"
         id="stop5542" />
    </linearGradient>
    <linearGradient
       inkscape:collect="always"
       xlink:href="#linearGradient5472"
       id="linearGradient5474"
       x1="9.9999971"
       y1="94.5"
       x2="135"
       y2="94.5"
       gradientUnits="userSpaceOnUse" />
    <linearGradient
       id="linearGradient5472"
       inkscape:swatch="solid">
      <stop
         style="stop-color:#1f1f1f;stop-opacity:1;"
         offset="0"
         id="stop5470" />
    </linearGradient>
    <linearGradient
       inkscape:collect="always"
       xlink:href="#linearGradient5472"
       id="linearGradient5506"
       gradientUnits="userSpaceOnUse"
       x1="9.9999971"
       y1="94.5"
       x2="135"
       y2="94.5"
       gradientTransform="matrix(0.86632293,0,0,0.86632293,9.6675949,12.608475)" />
  </defs>
  <g
     inkscape:label="Layer 1"
     inkscape:groupmode="layer"
     id="layer1">
    <g
       id="g2"
       transform="matrix(0.0573037,0,0,0.05730361,-0.71493199,-1.9756105)">
      <ellipse
         style="opacity:1;fill:url(#linearGradient5515);fill-opacity:1;stroke:url(#linearGradient5546);stroke-width:1;stroke-dasharray:none"
         id="path900"
         cx="72.5"
         cy="94.5"
         rx="59.523808"
         ry="59.523804" />
      <ellipse
         style="fill:none;fill-opacity:1;stroke:url(#linearGradient5474);stroke-width:1;stroke-dasharray:none;stroke-opacity:1"
         id="path900-5"
         cx="72.5"
         cy="94.5"
         rx="59.523808"
         ry="59.523804" />
      <ellipse
         style="fill:none;fill-opacity:1;stroke:url(#linearGradient5506);stroke-width:0.866323;stroke-dasharray:none;stroke-opacity:1"
         id="path900-5-7"
         cx="72.475998"
         cy="94.475998"
         rx="51.566837"
         ry="51.566833" />
      <path
         id="path367-7-5"
         style="fill:#050109;fill-rule:evenodd;stroke-width:0.746661"
         d="m 85.712233,68.244268 c -2.50273,-0.004 -5.79537,0.3862 -10.25984,1.05781 -14.106297,2.12238 -13.710047,12.09785 -13.559377,19.77191 0.006,0.33404 0.14589,1.4274 0.308,2.65307 0.24793,-0.24059 0.27656,0.87974 0.28628,2.17558 0.20949,1.57208 0.39972,3.04219 0.39274,3.41323 7.657197,1.24946 22.408587,-4.3898 32.245577,-18.46967 -3.42462,13.39817 -22.62167,26.829362 -32.004757,21.769212 l -0.24082,-3.299542 c -0.3997,0.3083 -0.37993,-1.70768 -0.39274,-3.41323 -0.10151,-0.76176 -0.19019,-1.44899 -0.28628,-2.17558 -7.6e-4,7.4e-4 -0.001,7.9e-4 -0.002,0.002 -22.90326,27.601492 -10.63871,31.467102 -2.62413,30.195582 0.68428,-0.14025 1.39346,-0.29862 2.1394,-0.48318 -0.65123,0.19784 -1.37741,0.36228 -2.1394,0.48318 -23.70552,4.85829 -10.94361,-16.37909 1.90944,-29.474692 -37.67393,38.222882 0.63781,45.486292 40.019784,3.7977 8.01499,-8.48487 8.66015,-16.47906 -5.705087,-18.35287 -2.45334,-7.05344 -3.69084,-9.63978 -10.08672,-9.65006 z m -24.227977,24.20523 c 0.23596,-0.23939 0.47276,-0.47907 0.71469,-0.72089 -0.23817,0.23702 -0.47635,0.47806 -0.71469,0.72089 z m 26.915157,-21.36458 c -6.9502,1.31435 -14.36556,5.03825 -20.926367,7.70031 6.089887,-9.7863 14.640997,-6.85972 20.926367,-7.70031 z m 18.051087,16.73282 c 0.11581,4.18831 -15.055867,19.430582 -26.045437,25.107512 12.86062,-8.55076 20.033257,-16.031262 26.045437,-25.107512 z" />
      <path
         id="path365-7-3-0"
         style="fill:#050109;fill-rule:evenodd;stroke-width:0.746661"
         d="m 36.106076,74.091408 c 1.9904,0.54181 4.61984,1.44797 7.98555,2.78278 2.8114,1.11499 4.604,2.9753 8.05171,5.37745 -3.38118,-2.50863 -5.52547,-4.29138 -7.90649,-5.63739 -13.32915,-7.53495 -14.04781,-6.98588 -8.13077,-2.52284 z" />
      <path
         id="path5648-2-6"
         style="fill:#050109;fill-rule:evenodd;stroke-width:0.746661"
         d="m 58.231336,95.864758 c 0.0134,0.008 0.0264,0.0168 0.0398,0.0253 0.26826,-0.30318 0.53591,-0.60733 0.80667,-0.90537 0.39686,-0.43687 0.79594,-0.86782 1.19631,-1.29192 0.40037,-0.42409 0.80189,-0.84133 1.20354,-1.25056 -0.58865,0.59723 -1.15865,1.18683 -1.71049,1.76888 -0.52945,0.55843 -1.03974,1.10931 -1.53582,1.65365 z" />
      <path
         id="path5642-4-0"
         style="fill:#050109;fill-rule:evenodd;stroke-width:0.746661"
         d="m 108.53214,116.14672 c 5.83866,1.16928 4.77676,-3.21286 -9.390647,-17.475932 -0.0205,0.0207 -0.041,0.0408 -0.0615,0.0615 7.690227,9.416532 10.314217,14.863322 9.452137,17.414442 z" />
      <path
         id="path5640-4-0"
         style="fill:#050109;fill-rule:evenodd;stroke-width:0.746661"
         d="m 89.381373,107.62889 c -0.22301,0.18456 -0.44733,0.3757 -0.66973,0.55708 -0.59768,0.48743 -1.19306,0.96326 -1.78594,1.42782 -0.59287,0.46455 -1.18294,0.91778 -1.77043,1.3596 -0.0375,0.0282 -0.0747,0.0541 -0.11214,0.0822 12.26474,5.99178 22.139677,9.08415 23.489007,5.09116 -3.91171,-0.78337 -10.922947,-4.06197 -19.150767,-8.51783 z" />
      <path
         id="path5638-6-4"
         style="fill:#050109;fill-rule:evenodd;stroke-width:0.746661"
         d="m 88.887863,107.36224 c -0.66452,0.51007 -1.33011,1.01135 -1.99471,1.48932 -0.74209,0.53369 -1.48219,1.04497 -2.21537,1.5291 -0.14669,0.0969 -0.29159,0.18752 -0.4377,0.28216 0.26953,0.13331 0.53574,0.26215 0.80305,0.39274 0.0375,-0.0281 0.0746,-0.054 0.11214,-0.0822 0.58749,-0.44182 1.17756,-0.89505 1.77043,-1.3596 0.59288,-0.46456 1.18826,-0.94039 1.78594,-1.42782 0.2224,-0.18138 0.44672,-0.37252 0.66973,-0.55708 -0.16526,-0.0895 -0.32728,-0.1762 -0.49351,-0.26665 z" />
      <path
         id="path5630-7-8"
         style="fill:#050109;fill-rule:evenodd;stroke-width:0.746661"
         d="m 62.480686,93.894848 c 0.003,0.42639 0.005,0.87202 0.0109,1.29604 0.006,0.42403 0.017,0.8265 0.0403,1.16582 0.0117,0.16967 0.0264,0.32377 0.045,0.45682 0.0186,0.13305 0.0415,0.2451 0.0687,0.33125 0.0136,0.0431 0.0283,0.0796 0.0444,0.10904 0.0161,0.0294 0.0333,0.0517 0.0522,0.0661 0.0189,0.0145 0.0392,0.0214 0.061,0.0196 0.0218,-0.002 0.0453,-0.0123 0.0703,-0.0315 0.002,-0.0928 -0.009,-0.25414 -0.0289,-0.46871 -0.0201,-0.21456 -0.0499,-0.48234 -0.0863,-0.78755 -0.0729,-0.61041 -0.17276,-1.37093 -0.27751,-2.15697 z" />
      <path
         id="path5628-3-3"
         style="fill:#050109;fill-rule:evenodd;stroke-width:0.746661"
         d="m 62.194406,91.719268 c -6.7e-4,6.5e-4 -10e-4,7.2e-4 -0.002,0.002 v 5.2e-4 c -0.71573,0.86254 -1.39711,1.70195 -2.04535,2.51871 -0.51779,0.65238 -0.99874,1.27942 -1.47485,1.90324 1.41798,0.89552 2.85847,1.78903 4.31188,2.67684 l -0.11059,-1.51205 c -0.025,0.0193 -0.0485,0.0298 -0.0703,0.0315 -0.0218,0.002 -0.0421,-0.005 -0.061,-0.0196 -0.0189,-0.0145 -0.0361,-0.0367 -0.0522,-0.0661 -0.0161,-0.0294 -0.0308,-0.066 -0.0444,-0.10904 -0.0273,-0.0862 -0.0501,-0.1982 -0.0687,-0.33125 -0.0186,-0.13305 -0.0333,-0.28715 -0.045,-0.45682 -0.0233,-0.33932 -0.0341,-0.74179 -0.0403,-1.16582 -0.006,-0.42402 -0.008,-0.86965 -0.0109,-1.29604 -0.10151,-0.76176 -0.19018,-1.44899 -0.28628,-2.17558 z" />
      <path
         id="path5626-1-4"
         style="fill:#050109;fill-rule:evenodd;stroke-width:0.746661"
         d="m 62.194406,91.719268 c 0.0961,0.72659 0.18477,1.41382 0.28628,2.17558 -0.002,-0.32396 -0.006,-0.63686 -0.0139,-0.92036 -0.008,-0.2835 -0.0201,-0.53763 -0.0398,-0.74362 -0.01,-0.103 -0.0217,-0.19411 -0.0357,-0.27079 -0.0139,-0.0767 -0.0302,-0.13876 -0.0491,-0.18448 -0.0189,-0.0457 -0.0401,-0.0746 -0.0646,-0.0847 -0.0245,-0.0101 -0.0522,-0.002 -0.0832,0.0284 z" />
      <path
         id="path5624-5-1"
         style="fill:#050109;fill-rule:evenodd;stroke-width:0.746661"
         d="m 62.174246,91.561658 c -11.05503,-6.94938 -20.99918,-13.64686 -26.06817,-17.47025 -13.24772,-3.6062 2.1519,9.11582 22.12526,21.77335 0.49608,-0.54434 1.00637,-1.09522 1.53582,-1.65365 0.55184,-0.58205 1.12184,-1.17165 1.71049,-1.76888 -0.40165,0.40923 -0.80317,0.82647 -1.20354,1.25056 -0.40037,0.4241 -0.79945,0.85505 -1.19631,1.29192 -0.27076,0.29804 -0.53841,0.60219 -0.80667,0.90537 1.03802,-1.16599 3.06386,-3.29519 3.92121,-4.16874 v 0 -5.2e-4 c 7.3e-4,-8.3e-4 0.001,-9e-4 0.002,-0.002 -0.008,-0.0581 -0.0126,-0.10012 -0.0202,-0.15761 z"
         sodipodi:nodetypes="cccscssccccccc" />
      <path
         id="path5622-1-0"
         style="fill:#050109;fill-rule:evenodd;stroke-width:0.746661"
         d="m 62.174246,91.561658 c 0.008,0.0575 0.0125,0.0995 0.0202,0.15761 0.031,-0.0301 0.0587,-0.0386 0.0832,-0.0284 0.0245,0.0101 0.0457,0.039 0.0646,0.0847 0.0188,0.0457 0.0351,0.10781 0.0491,0.18448 0.014,0.0767 0.0258,0.16779 0.0357,0.27079 0.0197,0.20599 0.0319,0.46012 0.0398,0.74362 0.008,0.2835 0.0115,0.5964 0.0139,0.92036 0.10475,0.78604 0.20464,1.54656 0.27751,2.15697 0.0364,0.30521 0.0662,0.57299 0.0863,0.78755 0.0201,0.21457 0.0307,0.37595 0.0289,0.46871 0.23929,0.039 0.48568,0.0716 0.73846,0.0971 0.25278,0.0255 0.5122,0.0444 0.77773,0.0563 0.26553,0.0119 0.53686,0.0167 0.81442,0.015 0.27756,-0.002 0.56123,-0.0103 0.85008,-0.0258 0.28885,-0.0155 0.58323,-0.0378 0.88263,-0.0672 0.29941,-0.0294 0.6039,-0.0662 0.91312,-0.10956 0.30923,-0.0434 0.62323,-0.0934 0.94155,-0.15089 0.31832,-0.0575 0.640697,-0.12217 0.967377,-0.19379 0.26065,-0.0571 0.52562,-0.1224 0.79117,-0.18862 -2.824097,-1.71605 -5.631637,-3.45404 -8.375717,-5.17901 z" />
    </g>
    <text
       xml:space="preserve"
       style="font-size:4.23333px;font-family:Consolas;-inkscape-font-specification:'Consolas, Normal';text-align:end;letter-spacing:0px;text-anchor:end;fill:#2a7fff;stroke-width:0.352777"
       x="29.615719"
       y="6.5227828"
       id="text1"><tspan
         sodipodi:role="line"
         style="stroke-width:0.352778;fill:#2a7fff"
         x="29.615719"
         y="6.5227828"
         id="tspan2">Connect</tspan></text>
    <g
       id="g6"
       transform="matrix(0.12800524,0,0,0.12800524,6.0258371,-13.381228)">
      <path
         style="font-weight:bold;font-size:32.4556px;font-family:Consolas;-inkscape-font-specification:'Consolas Bold';letter-spacing:-1.05833px;stroke-width:0.264583"
         d="m 121.26146,129.80617 v -2.69407 l 8.93453,-9.96142 h -8.74436 v -3.31212 h 15.9639 v 2.72577 l -8.76019,9.83463 h 8.88697 v 3.40721 z"
         id="path5"
         sodipodi:nodetypes="ccccccccccc" />
      <path
         style="font-weight:bold;font-size:32.4556px;font-family:Consolas;-inkscape-font-specification:'Consolas Bold';letter-spacing:-1.05833px;stroke-width:0.264583"
         d="m 111.49953,129.80834 -5.9428,-8.05051 v 8.05051 h -6.512612 v -21.93002 l 6.512612,4e-5 v 12.6434 l 5.62585,-6.68099 h 6.95015 l -6,7.20396 6.53881,8.76365 z"
         id="text1-2"
         sodipodi:nodetypes="cccccccccccc" />
      <g
         id="Layer1005"
         transform="matrix(0.3527772,0,0,0.3527772,-70.841415,-60.403813)">
        <path
           d="m 239.2672,477.1186 h 47.3623 v 13.3197 h -28.1258 v 10.8233 h 24.0129 v 12.5117 h -24.0129 v 25.3262 h -19.2365 z m 57.1609,17.0862 h 17.2164 v 44.8947 h -17.2164 z m 24.3163,0 h 20.4197 l 7.1433,12.5117 8.2834,-12.5117 h 18.991 l -15.311,21.3868 16.4077,23.5079 h -20.0877 l -8.2834,-14.4598 -9.7697,14.4598 H 319.893 l 16.3212,-23.5079 z m 63.5393,-17.0862 h 19.1931 v 61.9809 h -19.1931 z m 28.5876,0 h 58.2143 v 15.3113 h -19.5393 v 46.6696 h -19.1501 v -46.6696 h -19.5249 z"
           style="fill:#050109;fill-rule:evenodd;stroke:#050109;stroke-width:0.216;stroke-linecap:butt;stroke-linejoin:miter;stroke-dasharray:none"
           id="path27" />
        <path
           d="m 239.2674,539.0989 h 19.2367 v -13.1224 l -8.3075,7.2138 -10.9304,-7.2138 z"
           style="fill:#ffffff;fill-rule:evenodd;stroke:#050109;stroke-width:0.216;stroke-linecap:butt;stroke-linejoin:miter;stroke-dasharray:none"
           id="path28" />
      </g>
      <g
         id="Layer1006"
         transform="matrix(0.3527772,0,0,0.3527772,-70.738122,-60.780284)">
        <path
           d="m 308.794,480.3657 c -0.7976,-2.1619 -1.0451,-2.4189 -4.7542,-1.8928 -3.2961,0.4675 -3.2035,2.6651 -3.1683,4.3557 0.004,0.2073 0.2344,1.6276 0.2306,1.8157 -0.1646,0.1197 -0.0284,-1.3624 -0.1591,-1.2309 -6.3633,6.4046 1.7254,8.8103 9.1841,0.9955 1.8244,-1.9115 2.0235,-3.6304 -1.3331,-4.0432 z"
           style="fill:#050109;fill-rule:evenodd;stroke:#050109;stroke-width:0.216;stroke-linecap:butt;stroke-linejoin:miter;stroke-dasharray:none"
           id="path29" />
        <path
           d="m 307.065,478.8657 c -1.6239,0.2895 -3.3566,1.1099 -4.8897,1.6963 1.423,-2.1559 3.4211,-1.5111 4.8897,-1.6963 z"
           style="fill:#ffffff;fill-rule:evenodd"
           id="path30" />
        <path
           d="m 301.1021,484.6443 0.0563,0.7269 c 2.1925,1.1148 6.6781,-1.8441 7.4783,-4.7957 -2.2986,3.1018 -5.7454,4.3441 -7.5346,4.0688 z"
           style="fill:#ffffff;fill-rule:evenodd"
           id="path31" />
        <path
           d="m 300.943,483.4134 c -4.1299,5.6054 -0.064,5.6323 0.175,5.7645 -3.9591,-0.0791 -2.2488,-3.2875 -0.175,-5.7645 z"
           style="fill:#ffffff;fill-rule:evenodd"
           id="path32" />
        <path
           d="m 305.1971,488.083 c 3.005,-1.8837 4.6809,-3.5316 6.0857,-5.5311 0.0271,0.9227 -3.5178,4.2805 -6.0857,5.5311 z"
           style="fill:#ffffff;fill-rule:evenodd"
           id="path33" />
        <path
           d="m 307.065,478.8657 c -1.6239,0.2895 -3.3566,1.1099 -4.8897,1.6963 1.423,-2.1559 3.4211,-1.5111 4.8897,-1.6963 z"
           style="fill:#ffffff;fill-rule:evenodd"
           id="path35" />
        <path
           d="m 301.1021,484.6443 0.0563,0.7269 c 2.1925,1.1148 6.6781,-1.8441 7.4783,-4.7957 -2.2986,3.1018 -5.7454,4.3441 -7.5346,4.0688 z"
           style="fill:#ffffff;fill-rule:evenodd"
           id="path36" />
        <path
           d="m 300.943,483.4134 c -4.1299,5.6054 -0.064,5.6323 0.175,5.7645 -3.9591,-0.0791 -2.2488,-3.2875 -0.175,-5.7645 z"
           style="fill:#ffffff;fill-rule:evenodd"
           id="path37" />
        <path
           d="m 305.1971,488.083 c 3.005,-1.8837 4.6809,-3.5316 6.0857,-5.5311 0.0271,0.9227 -3.5178,4.2805 -6.0857,5.5311 z"
           style="fill:#ffffff;fill-rule:evenodd"
           id="path38" />
      </g>
      <text
         xml:space="preserve"
         style="font-style:normal;font-variant:normal;font-weight:bold;font-stretch:normal;font-size:25.0921px;font-family:Consolas;-inkscape-font-specification:'Consolas Bold';letter-spacing:-0.752763px;fill:#000000;stroke-width:0.188191"
         x="88.479362"
         y="129.54204"
         id="text2"><tspan
           sodipodi:role="line"
           id="tspan2-8"
           style="stroke-width:0.188191"
           x="88.479362"
           y="129.54204">.</tspan></text>
    </g>
  </g>
</svg>
